<mxfile host="app.diagrams.net" modified="2024-03-05T23:25:20.340Z" agent="Mozilla/5.0 (Windows NT 10.0; Win64; x64) AppleWebKit/537.36 (KHTML, like Gecko) Chrome/121.0.0.0 Safari/537.36 OPR/107.0.0.0" etag="WrBuJ-IuUegnAFBu4K6r" version="23.1.6" type="github">
  <diagram name="Page-1" id="2YBvvXClWsGukQMizWep">
    <mxGraphModel dx="1177" dy="500" grid="1" gridSize="10" guides="1" tooltips="1" connect="1" arrows="1" fold="1" page="1" pageScale="1" pageWidth="850" pageHeight="1100" math="0" shadow="0">
      <root>
        <mxCell id="0" />
        <mxCell id="1" parent="0" />
        <mxCell id="aM9ryv3xv72pqoxQDRHE-1" value=":Object" style="shape=umlLifeline;perimeter=lifelinePerimeter;whiteSpace=wrap;html=1;container=0;dropTarget=0;collapsible=0;recursiveResize=0;outlineConnect=0;portConstraint=eastwest;newEdgeStyle={&quot;edgeStyle&quot;:&quot;elbowEdgeStyle&quot;,&quot;elbow&quot;:&quot;vertical&quot;,&quot;curved&quot;:0,&quot;rounded&quot;:0};" parent="1" vertex="1">
          <mxGeometry x="40" y="40" width="100" height="300" as="geometry" />
        </mxCell>
        <mxCell id="aM9ryv3xv72pqoxQDRHE-2" value="" style="html=1;points=[];perimeter=orthogonalPerimeter;outlineConnect=0;targetShapes=umlLifeline;portConstraint=eastwest;newEdgeStyle={&quot;edgeStyle&quot;:&quot;elbowEdgeStyle&quot;,&quot;elbow&quot;:&quot;vertical&quot;,&quot;curved&quot;:0,&quot;rounded&quot;:0};" parent="aM9ryv3xv72pqoxQDRHE-1" vertex="1">
          <mxGeometry x="45" y="70" width="10" height="190" as="geometry" />
        </mxCell>
        <mxCell id="aM9ryv3xv72pqoxQDRHE-3" value="dispatch" style="html=1;verticalAlign=bottom;startArrow=oval;endArrow=block;startSize=8;edgeStyle=elbowEdgeStyle;elbow=vertical;curved=0;rounded=0;" parent="aM9ryv3xv72pqoxQDRHE-1" target="aM9ryv3xv72pqoxQDRHE-2" edge="1">
          <mxGeometry relative="1" as="geometry">
            <mxPoint x="-15" y="70" as="sourcePoint" />
          </mxGeometry>
        </mxCell>
        <mxCell id="aM9ryv3xv72pqoxQDRHE-4" value="" style="html=1;points=[];perimeter=orthogonalPerimeter;outlineConnect=0;targetShapes=umlLifeline;portConstraint=eastwest;newEdgeStyle={&quot;edgeStyle&quot;:&quot;elbowEdgeStyle&quot;,&quot;elbow&quot;:&quot;vertical&quot;,&quot;curved&quot;:0,&quot;rounded&quot;:0};" parent="aM9ryv3xv72pqoxQDRHE-1" vertex="1">
          <mxGeometry x="50" y="120" width="10" height="80" as="geometry" />
        </mxCell>
        <mxCell id="aM9ryv3xv72pqoxQDRHE-5" value=":Object" style="shape=umlLifeline;perimeter=lifelinePerimeter;whiteSpace=wrap;html=1;container=0;dropTarget=0;collapsible=0;recursiveResize=0;outlineConnect=0;portConstraint=eastwest;newEdgeStyle={&quot;edgeStyle&quot;:&quot;elbowEdgeStyle&quot;,&quot;elbow&quot;:&quot;vertical&quot;,&quot;curved&quot;:0,&quot;rounded&quot;:0};" parent="1" vertex="1">
          <mxGeometry x="220" y="40" width="100" height="300" as="geometry" />
        </mxCell>
        <mxCell id="aM9ryv3xv72pqoxQDRHE-6" value="" style="html=1;points=[];perimeter=orthogonalPerimeter;outlineConnect=0;targetShapes=umlLifeline;portConstraint=eastwest;newEdgeStyle={&quot;edgeStyle&quot;:&quot;elbowEdgeStyle&quot;,&quot;elbow&quot;:&quot;vertical&quot;,&quot;curved&quot;:0,&quot;rounded&quot;:0};" parent="aM9ryv3xv72pqoxQDRHE-5" vertex="1">
          <mxGeometry x="45" y="80" width="10" height="170" as="geometry" />
        </mxCell>
        <mxCell id="aM9ryv3xv72pqoxQDRHE-7" value="dispatch" style="html=1;verticalAlign=bottom;endArrow=block;edgeStyle=elbowEdgeStyle;elbow=vertical;curved=0;rounded=0;" parent="1" source="aM9ryv3xv72pqoxQDRHE-2" target="aM9ryv3xv72pqoxQDRHE-6" edge="1">
          <mxGeometry relative="1" as="geometry">
            <mxPoint x="195" y="130" as="sourcePoint" />
            <Array as="points">
              <mxPoint x="180" y="120" />
            </Array>
          </mxGeometry>
        </mxCell>
        <mxCell id="aM9ryv3xv72pqoxQDRHE-8" value="return" style="html=1;verticalAlign=bottom;endArrow=open;dashed=1;endSize=8;edgeStyle=elbowEdgeStyle;elbow=vertical;curved=0;rounded=0;" parent="1" source="aM9ryv3xv72pqoxQDRHE-6" target="aM9ryv3xv72pqoxQDRHE-2" edge="1">
          <mxGeometry relative="1" as="geometry">
            <mxPoint x="195" y="205" as="targetPoint" />
            <Array as="points">
              <mxPoint x="190" y="280" />
            </Array>
          </mxGeometry>
        </mxCell>
        <mxCell id="aM9ryv3xv72pqoxQDRHE-9" value="callback" style="html=1;verticalAlign=bottom;endArrow=block;edgeStyle=elbowEdgeStyle;elbow=vertical;curved=0;rounded=0;" parent="1" source="aM9ryv3xv72pqoxQDRHE-6" target="aM9ryv3xv72pqoxQDRHE-4" edge="1">
          <mxGeometry relative="1" as="geometry">
            <mxPoint x="175" y="160" as="sourcePoint" />
            <Array as="points">
              <mxPoint x="190" y="160" />
            </Array>
          </mxGeometry>
        </mxCell>
        <mxCell id="aM9ryv3xv72pqoxQDRHE-10" value="return" style="html=1;verticalAlign=bottom;endArrow=open;dashed=1;endSize=8;edgeStyle=elbowEdgeStyle;elbow=vertical;curved=0;rounded=0;" parent="1" source="aM9ryv3xv72pqoxQDRHE-4" target="aM9ryv3xv72pqoxQDRHE-6" edge="1">
          <mxGeometry relative="1" as="geometry">
            <mxPoint x="175" y="235" as="targetPoint" />
            <Array as="points">
              <mxPoint x="180" y="230" />
            </Array>
          </mxGeometry>
        </mxCell>
        <mxCell id="GWX-clTnrMnO6bSCdka6-1" value="Planejador&lt;div&gt;&lt;br/&gt;&lt;/div&gt;" style="shape=umlActor;verticalLabelPosition=bottom;verticalAlign=top;html=1;outlineConnect=0;" vertex="1" parent="1">
          <mxGeometry x="222" y="1159" width="30" height="60" as="geometry" />
        </mxCell>
        <mxCell id="GWX-clTnrMnO6bSCdka6-2" value="SELECIONAR DESTINO DA VIAGEM" style="ellipse;whiteSpace=wrap;html=1;" vertex="1" parent="1">
          <mxGeometry x="412" y="939" width="140" height="90" as="geometry" />
        </mxCell>
        <mxCell id="GWX-clTnrMnO6bSCdka6-11" style="edgeStyle=orthogonalEdgeStyle;rounded=0;orthogonalLoop=1;jettySize=auto;html=1;exitX=0.5;exitY=0;exitDx=0;exitDy=0;exitPerimeter=0;entryX=1;entryY=0.5;entryDx=0;entryDy=0;" edge="1" parent="1" source="GWX-clTnrMnO6bSCdka6-3" target="GWX-clTnrMnO6bSCdka6-9">
          <mxGeometry relative="1" as="geometry" />
        </mxCell>
        <mxCell id="GWX-clTnrMnO6bSCdka6-42" style="edgeStyle=orthogonalEdgeStyle;rounded=0;orthogonalLoop=1;jettySize=auto;html=1;entryX=1;entryY=0.5;entryDx=0;entryDy=0;" edge="1" parent="1" source="GWX-clTnrMnO6bSCdka6-3" target="GWX-clTnrMnO6bSCdka6-21">
          <mxGeometry relative="1" as="geometry" />
        </mxCell>
        <mxCell id="GWX-clTnrMnO6bSCdka6-3" value="Agência de viagens" style="shape=umlActor;verticalLabelPosition=bottom;verticalAlign=top;html=1;outlineConnect=0;" vertex="1" parent="1">
          <mxGeometry x="972" y="1159" width="30" height="60" as="geometry" />
        </mxCell>
        <mxCell id="GWX-clTnrMnO6bSCdka6-9" value="CONSULTAR DISPONIBILIDADE DE RESERVA" style="ellipse;whiteSpace=wrap;html=1;" vertex="1" parent="1">
          <mxGeometry x="732" y="969" width="140" height="90" as="geometry" />
        </mxCell>
        <mxCell id="GWX-clTnrMnO6bSCdka6-15" value="" style="endArrow=block;dashed=1;endFill=0;endSize=12;html=1;rounded=0;exitX=1;exitY=0.5;exitDx=0;exitDy=0;entryX=0;entryY=0.5;entryDx=0;entryDy=0;" edge="1" parent="1" source="GWX-clTnrMnO6bSCdka6-2" target="GWX-clTnrMnO6bSCdka6-9">
          <mxGeometry width="160" relative="1" as="geometry">
            <mxPoint x="542" y="1149" as="sourcePoint" />
            <mxPoint x="702" y="1149" as="targetPoint" />
          </mxGeometry>
        </mxCell>
        <mxCell id="GWX-clTnrMnO6bSCdka6-16" value="INCLUDE" style="edgeLabel;html=1;align=center;verticalAlign=middle;resizable=0;points=[];" vertex="1" connectable="0" parent="GWX-clTnrMnO6bSCdka6-15">
          <mxGeometry x="-0.0863" y="-1" relative="1" as="geometry">
            <mxPoint as="offset" />
          </mxGeometry>
        </mxCell>
        <mxCell id="GWX-clTnrMnO6bSCdka6-18" value="RESERVAR VOOS" style="ellipse;whiteSpace=wrap;html=1;" vertex="1" parent="1">
          <mxGeometry x="612" y="1089" width="120" height="70" as="geometry" />
        </mxCell>
        <mxCell id="GWX-clTnrMnO6bSCdka6-19" value="INCLUDE" style="endArrow=open;endSize=12;dashed=1;html=1;rounded=0;exitX=0;exitY=1;exitDx=0;exitDy=0;" edge="1" parent="1" source="GWX-clTnrMnO6bSCdka6-9">
          <mxGeometry width="160" relative="1" as="geometry">
            <mxPoint x="522" y="1159" as="sourcePoint" />
            <mxPoint x="712" y="1109" as="targetPoint" />
          </mxGeometry>
        </mxCell>
        <mxCell id="GWX-clTnrMnO6bSCdka6-20" value="CONFIRMAR RESERVA" style="ellipse;whiteSpace=wrap;html=1;" vertex="1" parent="1">
          <mxGeometry x="412" y="1169" width="140" height="90" as="geometry" />
        </mxCell>
        <mxCell id="GWX-clTnrMnO6bSCdka6-21" value="CONFIRMAÇÃO" style="ellipse;whiteSpace=wrap;html=1;" vertex="1" parent="1">
          <mxGeometry x="642" y="1259" width="120" height="60" as="geometry" />
        </mxCell>
        <mxCell id="GWX-clTnrMnO6bSCdka6-22" value="INCLUDE" style="endArrow=open;endSize=12;dashed=1;html=1;rounded=0;entryX=1;entryY=0.5;entryDx=0;entryDy=0;exitX=0;exitY=0.5;exitDx=0;exitDy=0;" edge="1" parent="1" source="GWX-clTnrMnO6bSCdka6-21" target="GWX-clTnrMnO6bSCdka6-20">
          <mxGeometry width="160" relative="1" as="geometry">
            <mxPoint x="522" y="1169" as="sourcePoint" />
            <mxPoint x="642" y="1289" as="targetPoint" />
          </mxGeometry>
        </mxCell>
        <mxCell id="GWX-clTnrMnO6bSCdka6-24" value="PREPARAR OS DOCUMENTOS" style="ellipse;whiteSpace=wrap;html=1;" vertex="1" parent="1">
          <mxGeometry x="412" y="1299" width="140" height="90" as="geometry" />
        </mxCell>
        <mxCell id="GWX-clTnrMnO6bSCdka6-27" value="" style="endArrow=classic;html=1;rounded=0;exitX=1;exitY=0.3333333333333333;exitDx=0;exitDy=0;exitPerimeter=0;entryX=0;entryY=0.5;entryDx=0;entryDy=0;" edge="1" parent="1" source="GWX-clTnrMnO6bSCdka6-1" target="GWX-clTnrMnO6bSCdka6-2">
          <mxGeometry width="50" height="50" relative="1" as="geometry">
            <mxPoint x="722" y="1199" as="sourcePoint" />
            <mxPoint x="772" y="1149" as="targetPoint" />
          </mxGeometry>
        </mxCell>
        <mxCell id="GWX-clTnrMnO6bSCdka6-28" value="" style="endArrow=classic;html=1;rounded=0;exitX=1;exitY=0.3333333333333333;exitDx=0;exitDy=0;exitPerimeter=0;entryX=0;entryY=0.5;entryDx=0;entryDy=0;" edge="1" parent="1" source="GWX-clTnrMnO6bSCdka6-1" target="GWX-clTnrMnO6bSCdka6-20">
          <mxGeometry width="50" height="50" relative="1" as="geometry">
            <mxPoint x="222" y="1189" as="sourcePoint" />
            <mxPoint x="422" y="994" as="targetPoint" />
          </mxGeometry>
        </mxCell>
        <mxCell id="GWX-clTnrMnO6bSCdka6-29" value="" style="endArrow=classic;html=1;rounded=0;exitX=1;exitY=0.3333333333333333;exitDx=0;exitDy=0;exitPerimeter=0;entryX=0;entryY=0.5;entryDx=0;entryDy=0;" edge="1" parent="1" source="GWX-clTnrMnO6bSCdka6-1" target="GWX-clTnrMnO6bSCdka6-24">
          <mxGeometry width="50" height="50" relative="1" as="geometry">
            <mxPoint x="222" y="1189" as="sourcePoint" />
            <mxPoint x="422" y="1224" as="targetPoint" />
          </mxGeometry>
        </mxCell>
        <mxCell id="GWX-clTnrMnO6bSCdka6-30" value="FAZER CHECK-IN" style="ellipse;whiteSpace=wrap;html=1;" vertex="1" parent="1">
          <mxGeometry x="412" y="1439" width="140" height="90" as="geometry" />
        </mxCell>
        <mxCell id="GWX-clTnrMnO6bSCdka6-31" value="PASSAR PELO CONTROLE DE SEGURANÇA" style="ellipse;whiteSpace=wrap;html=1;" vertex="1" parent="1">
          <mxGeometry x="702" y="1439" width="140" height="90" as="geometry" />
        </mxCell>
        <mxCell id="GWX-clTnrMnO6bSCdka6-32" value="EMBARCAR NO AVIÃO" style="ellipse;whiteSpace=wrap;html=1;" vertex="1" parent="1">
          <mxGeometry x="552" y="1589" width="140" height="90" as="geometry" />
        </mxCell>
        <mxCell id="GWX-clTnrMnO6bSCdka6-33" value="" style="endArrow=classic;html=1;rounded=0;exitX=1;exitY=0.3333333333333333;exitDx=0;exitDy=0;exitPerimeter=0;entryX=0;entryY=0.5;entryDx=0;entryDy=0;" edge="1" parent="1" source="GWX-clTnrMnO6bSCdka6-1" target="GWX-clTnrMnO6bSCdka6-30">
          <mxGeometry width="50" height="50" relative="1" as="geometry">
            <mxPoint x="222" y="1189" as="sourcePoint" />
            <mxPoint x="422" y="1354" as="targetPoint" />
          </mxGeometry>
        </mxCell>
        <mxCell id="GWX-clTnrMnO6bSCdka6-34" value="" style="endArrow=block;dashed=1;endFill=0;endSize=12;html=1;rounded=0;exitX=1;exitY=0.5;exitDx=0;exitDy=0;" edge="1" parent="1" source="GWX-clTnrMnO6bSCdka6-30" target="GWX-clTnrMnO6bSCdka6-31">
          <mxGeometry width="160" relative="1" as="geometry">
            <mxPoint x="672" y="1529" as="sourcePoint" />
            <mxPoint x="832" y="1529" as="targetPoint" />
          </mxGeometry>
        </mxCell>
        <mxCell id="GWX-clTnrMnO6bSCdka6-36" value="INCLUDE" style="edgeLabel;html=1;align=center;verticalAlign=middle;resizable=0;points=[];" vertex="1" connectable="0" parent="GWX-clTnrMnO6bSCdka6-34">
          <mxGeometry x="-0.0347" y="3" relative="1" as="geometry">
            <mxPoint as="offset" />
          </mxGeometry>
        </mxCell>
        <mxCell id="GWX-clTnrMnO6bSCdka6-35" value="" style="endArrow=block;dashed=1;endFill=0;endSize=12;html=1;rounded=0;exitX=0.29;exitY=0.938;exitDx=0;exitDy=0;entryX=1;entryY=0;entryDx=0;entryDy=0;exitPerimeter=0;" edge="1" parent="1" source="GWX-clTnrMnO6bSCdka6-31" target="GWX-clTnrMnO6bSCdka6-32">
          <mxGeometry width="160" relative="1" as="geometry">
            <mxPoint x="562" y="1494" as="sourcePoint" />
            <mxPoint x="712" y="1494" as="targetPoint" />
          </mxGeometry>
        </mxCell>
        <mxCell id="GWX-clTnrMnO6bSCdka6-37" value="INCLUDE" style="edgeLabel;html=1;align=center;verticalAlign=middle;resizable=0;points=[];" vertex="1" connectable="0" parent="GWX-clTnrMnO6bSCdka6-35">
          <mxGeometry x="-0.3209" y="-4" relative="1" as="geometry">
            <mxPoint as="offset" />
          </mxGeometry>
        </mxCell>
        <mxCell id="GWX-clTnrMnO6bSCdka6-41" value="frame" style="shape=umlFrame;whiteSpace=wrap;html=1;pointerEvents=0;" vertex="1" parent="1">
          <mxGeometry x="312" y="909" width="618" height="790" as="geometry" />
        </mxCell>
        <mxCell id="GWX-clTnrMnO6bSCdka6-44" value="EXIBIR MENSAGEM DE INDISPONIBILIDADE" style="ellipse;whiteSpace=wrap;html=1;" vertex="1" parent="1">
          <mxGeometry x="782" y="1100" width="148" height="70" as="geometry" />
        </mxCell>
        <mxCell id="GWX-clTnrMnO6bSCdka6-45" value="EXTENDS" style="endArrow=open;endSize=12;dashed=1;html=1;rounded=0;exitX=0.5;exitY=1;exitDx=0;exitDy=0;" edge="1" parent="1" source="GWX-clTnrMnO6bSCdka6-9" target="GWX-clTnrMnO6bSCdka6-44">
          <mxGeometry width="160" relative="1" as="geometry">
            <mxPoint x="763" y="1056" as="sourcePoint" />
            <mxPoint x="722" y="1119" as="targetPoint" />
          </mxGeometry>
        </mxCell>
      </root>
    </mxGraphModel>
  </diagram>
</mxfile>
